HIERARCHY
ROOT Hips
{
    OFFSET   0.000000   0.000000   0.000000
    CHANNELS 6 Xposition Yposition Zposition Zrotation Xrotation Yrotation
    JOINT Chest
    {
        OFFSET   0.000000   8.007230   0.000000
        CHANNELS 3 Zrotation Xrotation Yrotation
        JOINT Chest2
        {
            OFFSET   0.000000  22.077100   0.000000
            CHANNELS 3 Zrotation Xrotation Yrotation
            JOINT Neck
            {
                OFFSET   0.000000  23.254800  -0.000021
                CHANNELS 3 Zrotation Xrotation Yrotation
                JOINT Head
                {
                    OFFSET   0.000000  14.370000   1.956610
                    CHANNELS 3 Zrotation Xrotation Yrotation
                    End Site
                    {
                        OFFSET   0.000000  19.566000   0.000000
                    }
                }
            }
            JOINT LeftCollar
            {
                OFFSET   3.911900  19.017000  -0.467063
                CHANNELS 3 Zrotation Xrotation Yrotation
                JOINT LeftShoulder
                {
                    OFFSET  10.383700   0.000000   0.000000
                    CHANNELS 3 Zrotation Xrotation Yrotation
                    JOINT LeftElbow
                    {
                        OFFSET  26.662100   0.001529   0.000325
                        CHANNELS 3 Zrotation Xrotation Yrotation
                        JOINT LeftWrist
                        {
                            OFFSET  28.869000  -0.000011  -0.000096
                            CHANNELS 3 Zrotation Xrotation Yrotation
                            JOINT LeftFinger0
                            {
                                OFFSET   2.044650  -2.323460   3.252850
                                CHANNELS 3 Zrotation Xrotation Yrotation
                                JOINT LeftFinger01
                                {
                                    OFFSET   3.088130   0.000000   0.000000
                                    CHANNELS 3 Zrotation Xrotation Yrotation
                                    JOINT LeftFinger02
                                    {
                                        OFFSET   2.639460   0.000000   0.000000
                                        CHANNELS 3 Zrotation Xrotation Yrotation
                                        End Site
                                        {
                                            OFFSET   2.582190   0.000000   0.000000
                                        }
                                    }
                                }
                            }
                            JOINT LeftFinger1
                            {
                                OFFSET   8.364480   0.000000   3.252850
                                CHANNELS 3 Zrotation Xrotation Yrotation
                                JOINT LeftFinger11
                                {
                                    OFFSET   4.646930   0.000000   0.000000
                                    CHANNELS 3 Zrotation Xrotation Yrotation
                                    JOINT LeftFinger12
                                    {
                                        OFFSET   2.323460   0.000000   0.000000
                                        CHANNELS 3 Zrotation Xrotation Yrotation
                                        End Site
                                        {
                                            OFFSET   2.273050   0.000000   0.000000
                                        }
                                    }
                                }
                            }
                            JOINT LeftFinger2
                            {
                                OFFSET   8.364480   0.000016   1.078090
                                CHANNELS 3 Zrotation Xrotation Yrotation
                                JOINT LeftFinger21
                                {
                                    OFFSET   5.111620   0.000000   0.000000
                                    CHANNELS 3 Zrotation Xrotation Yrotation
                                    JOINT LeftFinger22
                                    {
                                        OFFSET   2.788160   0.000017   0.000000
                                        CHANNELS 3 Zrotation Xrotation Yrotation
                                        End Site
                                        {
                                            OFFSET   2.727660   0.000000   0.000000
                                        }
                                    }
                                }
                            }
                            JOINT LeftFinger3
                            {
                                OFFSET   7.899780   0.000015  -1.078090
                                CHANNELS 3 Zrotation Xrotation Yrotation
                                JOINT LeftFinger31
                                {
                                    OFFSET   4.646920   0.000000   0.000000
                                    CHANNELS 3 Zrotation Xrotation Yrotation
                                    JOINT LeftFinger32
                                    {
                                        OFFSET   2.323470   0.000000   0.000000
                                        CHANNELS 3 Zrotation Xrotation Yrotation
                                        End Site
                                        {
                                            OFFSET   2.273050   0.000000   0.000000
                                        }
                                    }
                                }
                            }
                            JOINT LeftFinger4
                            {
                                OFFSET   7.435090   0.000000  -3.252850
                                CHANNELS 3 Zrotation Xrotation Yrotation
                                JOINT LeftFinger41
                                {
                                    OFFSET   3.717550   0.000000   0.000000
                                    CHANNELS 3 Zrotation Xrotation Yrotation
                                    JOINT LeftFinger42
                                    {
                                        OFFSET   1.858760   0.000000   0.000000
                                        CHANNELS 3 Zrotation Xrotation Yrotation
                                        End Site
                                        {
                                            OFFSET   1.818440   0.000000   0.000000
                                        }
                                    }
                                }
                            }
                        }
                    }
                }
            }
            JOINT RightCollar
            {
                OFFSET  -3.911900  19.017000  -0.467062
                CHANNELS 3 Zrotation Xrotation Yrotation
                JOINT RightShoulder
                {
                    OFFSET -10.383700   0.000015   0.000000
                    CHANNELS 3 Zrotation Xrotation Yrotation
                    JOINT RightElbow
                    {
                        OFFSET -26.662100   0.001341   0.000385
                        CHANNELS 3 Zrotation Xrotation Yrotation
                        JOINT RightWrist
                        {
                            OFFSET -28.869000   0.000025  -0.000080
                            CHANNELS 3 Zrotation Xrotation Yrotation
                            JOINT RightFinger0
                            {
                                OFFSET  -2.044650  -2.323490   3.252850
                                CHANNELS 3 Zrotation Xrotation Yrotation
                                JOINT RightFinger01
                                {
                                    OFFSET  -3.088130   0.000000   0.000000
                                    CHANNELS 3 Zrotation Xrotation Yrotation
                                    JOINT RightFinger02
                                    {
                                        OFFSET  -2.639460   0.000000   0.000000
                                        CHANNELS 3 Zrotation Xrotation Yrotation
                                        End Site
                                        {
                                            OFFSET  -2.582190   0.000000   0.000000
                                        }
                                    }
                                }
                            }
                            JOINT RightFinger1
                            {
                                OFFSET  -8.364480   0.000000   3.252850
                                CHANNELS 3 Zrotation Xrotation Yrotation
                                JOINT RightFinger11
                                {
                                    OFFSET  -4.646930   0.000000   0.000000
                                    CHANNELS 3 Zrotation Xrotation Yrotation
                                    JOINT RightFinger12
                                    {
                                        OFFSET  -2.323470   0.000000   0.000000
                                        CHANNELS 3 Zrotation Xrotation Yrotation
                                        End Site
                                        {
                                            OFFSET  -2.273050   0.000000   0.000000
                                        }
                                    }
                                }
                            }
                            JOINT RightFinger2
                            {
                                OFFSET  -8.364480   0.000000   1.078090
                                CHANNELS 3 Zrotation Xrotation Yrotation
                                JOINT RightFinger21
                                {
                                    OFFSET  -5.111610   0.000000   0.000000
                                    CHANNELS 3 Zrotation Xrotation Yrotation
                                    JOINT RightFinger22
                                    {
                                        OFFSET  -2.788160   0.000000   0.000000
                                        CHANNELS 3 Zrotation Xrotation Yrotation
                                        End Site
                                        {
                                            OFFSET  -2.727660   0.000000   0.000000
                                        }
                                    }
                                }
                            }
                            JOINT RightFinger3
                            {
                                OFFSET  -7.899780   0.000000  -1.078090
                                CHANNELS 3 Zrotation Xrotation Yrotation
                                JOINT RightFinger31
                                {
                                    OFFSET  -4.646920   0.000000   0.000000
                                    CHANNELS 3 Zrotation Xrotation Yrotation
                                    JOINT RightFinger32
                                    {
                                        OFFSET  -2.323470   0.000000   0.000000
                                        CHANNELS 3 Zrotation Xrotation Yrotation
                                        End Site
                                        {
                                            OFFSET  -2.273050   0.000000   0.000000
                                        }
                                    }
                                }
                            }
                            JOINT RightFinger4
                            {
                                OFFSET  -7.435090   0.000000  -3.252850
                                CHANNELS 3 Zrotation Xrotation Yrotation
                                JOINT RightFinger41
                                {
                                    OFFSET  -3.717550   0.000000   0.000000
                                    CHANNELS 3 Zrotation Xrotation Yrotation
                                    JOINT RightFinger42
                                    {
                                        OFFSET  -1.858770   0.000000   0.000000
                                        CHANNELS 3 Zrotation Xrotation Yrotation
                                        End Site
                                        {
                                            OFFSET  -1.818440   0.000000   0.000000
                                        }
                                    }
                                }
                            }
                        }
                    }
                }
            }
        }
    }
    JOINT LeftHip
    {
        OFFSET   9.783010   0.000000   0.000000
        CHANNELS 3 Zrotation Xrotation Yrotation
        JOINT LeftKnee
        {
            OFFSET   0.000070 -41.789100   0.000028
            CHANNELS 3 Zrotation Xrotation Yrotation
            JOINT LeftAnkle
            {
                OFFSET   0.000087 -41.133200  -0.000100
                CHANNELS 3 Zrotation Xrotation Yrotation
                JOINT LeftToe
                {
                    OFFSET   0.000000  -6.358960  14.674500
                    CHANNELS 3 Zrotation Xrotation Yrotation
                    End Site
                    {
                        OFFSET   0.000000   0.000000   3.913200
                    }
                }
            }
        }
    }
    JOINT RightHip
    {
        OFFSET  -9.783020   0.000000   0.000000
        CHANNELS 3 Zrotation Xrotation Yrotation
        JOINT RightKnee
        {
            OFFSET   0.000044 -41.789100  -0.000870
            CHANNELS 3 Zrotation Xrotation Yrotation
            JOINT RightAnkle
            {
                OFFSET  -0.000090 -41.133200  -0.000245
                CHANNELS 3 Zrotation Xrotation Yrotation
                JOINT RightToe
                {
                    OFFSET   0.000000  -6.358960  14.674500
                    CHANNELS 3 Zrotation Xrotation Yrotation
                    End Site
                    {
                        OFFSET   0.000000   0.000000   3.913200
                    }
                }
            }
        }
    }
}
MOTION
Frames: 4
Frame Time:   0.016667
  2.587160  89.433100  -2.768590  -1.751640 -15.105400  -1.683530   1.307000   9.877150   1.598910   2.383380  19.785300   3.034210   2.761040   1.221370  -0.058706   4.541590   2.459730  -3.341960  -7.385550  -1.882200   7.485370 -74.376200  11.977800  -6.482240   0.446909   5.381980 -17.630800   7.261710  -6.602480  -2.863430  40.557400  30.096200 -55.656700 -28.025000   0.001402   0.000781  -9.012530   0.000000   0.001199 -33.192600  -0.800530   1.223340 -27.164500   0.014775   0.001195 -19.015200   0.009637   0.003908 -30.090400  -3.736180   6.419770 -45.449700   0.051313  -0.127344 -30.269600   0.101435  -0.021519 -28.192400  -3.587850   6.658890 -35.126400   0.033632  -0.174128 -23.394200   0.110260  -0.067748 -32.541400  -4.083610   6.367750 -49.152900   0.019790   0.022386 -32.735900   0.007929   0.019418   6.004360   2.039370  11.566400  52.550500  -4.521910  55.156800 -13.785900  -8.148270  61.495600  17.337000 -14.683600  10.079100 -57.995300  36.250400  64.118300 -10.844800  -0.126702  -0.024228 -10.422400  -0.063386  -0.005796  88.996200   4.999000   0.088101  88.355200   0.071489   0.054825  66.266400   0.060510  -0.029909  89.000000   0.005308  -0.000067 109.719000   0.083402   0.024176  80.712900   0.025591  -0.048976  88.996200  -5.009960  -0.087490 110.000000  -0.006957   0.001296  80.000000  -0.000065   0.003220  88.984600  -9.997750  -0.176292 110.000000  -0.002306  -0.002885  79.999900   0.000353   0.003469   0.896793  17.028300   1.487370  -0.656288   0.481380  11.333900  -2.280490  -2.213140  -4.496760   0.000000   0.000000   0.000000  -0.212222  12.969500  -4.880850  -2.197170   8.755030 -13.336300   3.256450  -5.296910  -0.923171  -0.000000   0.000000   0.000000
  2.494710  89.444300  -2.748450  -1.787220 -14.719000  -1.678350   1.275070   9.669080   1.620240   2.318460  19.368800   3.085830   2.700600   1.067020  -0.050112   4.440700   2.149720  -3.403100  -7.449860  -1.890790   7.443230 -74.504600  11.453800  -6.228740   0.466046   5.821470 -18.088300   7.405810  -6.058200  -2.840700  40.723700  30.495700 -55.678000 -28.056900   0.001405   0.000776  -9.028470   0.000000   0.001208 -33.194200  -0.809286   1.236730 -27.166000   0.022699   0.015537 -19.016300   0.012148   0.015086 -30.105700  -3.735980   6.415470 -45.471700   0.209061  -0.274421 -30.284800   0.260416  -0.002248 -28.190800  -3.591990   6.667370 -35.093600   0.063377  -0.246788 -23.372300   0.179430  -0.102249 -32.561600  -4.091030   6.374220 -49.184300   0.010309  -0.000355 -32.756800   0.010195   0.003341   6.288660   1.547960  11.584900  51.324400  -3.711790  53.068900 -14.156300  -7.824040  60.760000  16.120000 -14.057500   9.398000 -57.818300  37.051600  67.572700  -7.352110  -0.128610  -0.033759  -8.676040  -0.063294  -0.018708  88.954900   4.999040   0.088101  86.377900   0.100291   0.077609  64.783500   0.086783  -0.038849  89.000000   0.005322  -0.000023 107.987000   0.124068   0.036441  80.435700   0.044934  -0.081720  88.996200  -5.009990  -0.087486 109.988000  -0.006950   0.001379  79.960600  -0.000049   0.003203  88.984600  -9.997650  -0.176296 110.000000  -0.002331  -0.002806  79.999900   0.000383   0.003453   1.010530  16.713300   1.441560  -0.648645   0.411724  11.262800  -2.308720  -2.211690  -4.406830   0.000000   0.000000   0.000000  -0.116562  12.772100  -4.902540  -2.157990   8.486250 -13.415600   3.147890  -5.216480  -0.862909  -0.000000   0.000000   0.000000
  2.405420  89.454000  -2.725600  -1.810770 -14.307100  -1.660140   1.239960   9.445610   1.630340   2.249610  18.921300   3.114870   2.613730   0.887455  -0.040323   4.296400   1.788830  -3.444060  -7.505000  -1.907720   7.413580 -74.632600  10.953200  -5.941180   0.494553   6.240400 -18.515300   7.568440  -5.719960  -2.823620  41.044200  31.007200 -55.830800 -28.098400   0.001407   0.000775  -9.049210   0.000000   0.001216 -33.206400  -0.841983   1.285720 -27.176700   0.032416   0.035014 -19.023700   0.014660   0.030232 -30.144800  -3.735840   6.404580 -45.528100   0.366804  -0.421503 -30.323600   0.419396   0.020812 -28.185200  -3.615300   6.711130 -35.088700   0.093120  -0.319448 -23.368900   0.248600  -0.133949 -32.614100  -4.124060   6.411990 -49.268000  -0.002588  -0.024599 -32.812500   0.011542  -0.014889   6.604140   1.043710  11.626800  49.990600  -2.736880  50.754100 -14.538000  -7.259650  59.918000  14.697300 -13.469500   8.737690 -56.917100  37.441800  70.513100  -3.526310  -0.128883  -0.043488  -6.763130  -0.062646  -0.027133  88.913700   4.999150   0.088101  83.998100   0.117101   0.090609  62.998700   0.102093  -0.043767  89.000000   0.005328   0.000000 105.538000   0.146890   0.043302  79.346400   0.056776  -0.101072  88.996200  -5.010000  -0.087484 109.977000  -0.006924   0.001467  79.921200   0.000000   0.003152  88.984600  -9.997560  -0.176301 110.000000  -0.002358  -0.002729  79.999900   0.000410   0.003438   1.120280  16.372400   1.402440  -0.644885   0.339009  11.182400  -2.337000  -2.206960  -4.334510   0.000000   0.000000   0.000000  -0.047808  12.608200  -4.917150  -2.065870   8.134140 -13.500100   3.056920  -5.123350  -0.822015   0.000000   0.000000  -0.000000
  2.319940  89.461600  -2.698960  -1.814490 -13.867200  -1.612910   1.198570   9.196540   1.632980   2.170440  18.422200   3.128340   2.497820   0.694951  -0.030289   4.104680   1.401360  -3.468000  -7.538740  -1.923150   7.396880 -74.714000  10.603900  -5.642920   0.528058   6.582800 -18.866400   7.723520  -5.660870  -2.812240  41.203600  31.329400 -55.801600 -28.164200   0.001404   0.000810  -9.082080   0.000000   0.001207 -33.265000  -0.908775   1.384360 -27.227000   0.034507   0.041209 -19.058900   0.014586   0.034926 -30.213500  -3.735750   6.385490 -45.630500   0.352341  -0.386727 -30.391600   0.391737   0.025231 -28.185500  -3.671310   6.813230 -35.170500   0.078785  -0.254120 -23.423400   0.213302  -0.116313 -32.709000  -4.198430   6.502660 -49.421600  -0.006769  -0.026351 -32.914800   0.009428  -0.017400   6.977970   0.535911  11.704500  48.664500  -1.600250  48.085400 -14.991700  -6.287780  59.114900  13.098900 -13.140000   8.170830 -54.968000  37.338800  72.266000   0.537140  -0.092967  -0.046838  -4.731410  -0.044720  -0.026341  89.573000   5.003200   0.057205  81.026900   0.100290   0.076643  60.770300   0.087944  -0.037968  89.081300   0.005326  -0.006581 102.504000   0.128358   0.037111  77.084700   0.051731  -0.086634  88.996200  -5.010000  -0.087485 110.364000   0.008209   0.001517  80.442300   0.000313  -0.000286  88.984600  -9.997470  -0.176303 110.000000  -0.002368  -0.002649  79.999900   0.000443   0.003416   1.216000  15.988700   1.365970  -0.638377   0.275317  11.107900  -2.363390  -2.199470  -4.288700   0.000000   0.000000   0.000000   0.002154  12.381600  -4.914300  -1.984290   7.797430 -13.556900   2.982630  -5.017250  -0.840864  -0.000000   0.000000   0.000000
